<svg version="1.1" xmlns="http://www.w3.org/2000/svg" viewBox="0 0 246.89324918693455 256.11664003500914" width="246.89324918693455" height="256.11664003500914">
  <!-- svg-source:excalidraw -->
  
  <defs>
    <style>
      @font-face {
        font-family: "Virgil";
        src: url("https://excalidraw.com/Virgil.woff2");
      }
      @font-face {
        font-family: "Cascadia";
        src: url("https://excalidraw.com/Cascadia.woff2");
      }
    </style>
  </defs>
  <rect x="0" y="0" width="246.89324918693455" height="256.11664003500914" fill="#ffffff"></rect><g stroke-linecap="round" transform="translate(36.70971084033408 9.999999999999773) rotate(0 84.00395997189753 81.27680446872785)"><path d="M113.45 5.77 C124.29 8.29, 135.06 15.49, 143.1 22.68 C151.15 29.86, 157.87 38.72, 161.74 48.88 C165.6 59.03, 166.32 72.14, 166.3 83.61 C166.28 95.08, 166.28 108.16, 161.63 117.71 C156.98 127.26, 147.57 133.68, 138.4 140.88 C129.23 148.08, 117.55 157.27, 106.61 160.91 C95.67 164.55, 83.75 164.35, 72.74 162.72 C61.73 161.09, 50.04 156.72, 40.56 151.12 C31.08 145.52, 22.09 138.33, 15.86 129.13 C9.64 119.93, 5.36 106.72, 3.19 95.91 C1.03 85.11, 0.68 74.6, 2.87 64.32 C5.05 54.04, 9.48 43.31, 16.3 34.21 C23.12 25.11, 33.39 15.32, 43.78 9.7 C54.18 4.09, 64.95 0.31, 78.68 0.51 C92.41 0.71, 115.91 7.26, 126.18 10.9 C136.46 14.55, 141.02 21.06, 140.33 22.37 M70.14 -0.8 C80.86 -3.53, 95.03 -2.29, 106.04 0.49 C117.05 3.27, 127.17 8.77, 136.2 15.88 C145.23 22.99, 155.22 32.63, 160.23 43.17 C165.24 53.71, 165.47 67.84, 166.27 79.13 C167.07 90.42, 168.5 101.16, 165.03 110.91 C161.56 120.67, 153.97 130.13, 145.44 137.66 C136.91 145.19, 124.95 151.71, 113.86 156.11 C102.76 160.52, 89.88 164.83, 78.86 164.09 C67.85 163.35, 58.09 156.69, 47.77 151.66 C37.46 146.63, 24.22 142.64, 16.97 133.92 C9.72 125.2, 6.51 110.71, 4.27 99.37 C2.02 88.03, 2.31 76.7, 3.5 65.88 C4.69 55.05, 5.82 42.96, 11.39 34.43 C16.96 25.91, 27.3 19.99, 36.9 14.73 C46.49 9.47, 63.45 5.16, 68.96 2.89 C74.47 0.61, 69.7 -0.4, 69.98 1.09" stroke="#000000" stroke-width="4" fill="none"></path></g><g transform="translate(67.32348225989881 76.94526480922445) rotate(0 38.94597030656769 7.016870391986686)" stroke="none"><path fill="#000000" d="M -5.03,-4.85 Q -5.03,-4.85 -3.52,-9.26 -2.01,-13.67 0.91,-17.46 3.83,-21.26 6.15,-24.96 8.46,-28.66 12.23,-32.60 16.01,-36.54 18.99,-39.60 21.98,-42.65 24.38,-45.50 26.77,-48.34 27.34,-48.92 27.91,-49.49 28.60,-49.92 29.29,-50.34 30.06,-50.59 30.83,-50.83 31.64,-50.89 32.45,-50.94 33.24,-50.80 34.04,-50.66 34.78,-50.33 35.52,-50.01 36.17,-49.51 36.81,-49.02 37.31,-48.38 37.82,-47.75 38.15,-47.01 38.49,-46.28 38.64,-45.48 38.79,-44.68 38.75,-43.87 38.71,-43.07 38.47,-42.29 38.24,-41.52 37.82,-40.82 37.41,-40.12 39.00,-35.52 40.60,-30.91 41.34,-26.13 42.07,-21.35 41.70,-16.87 41.33,-12.40 41.32,-6.37 41.30,-0.33 42.08,4.89 42.85,10.12 43.96,14.87 45.07,19.62 46.47,24.03 47.86,28.45 49.68,33.73 51.50,39.01 53.49,42.91 55.48,46.80 51.20,46.57 46.93,46.33 49.77,42.77 52.62,39.20 55.72,34.08 58.83,28.95 61.17,24.30 63.51,19.66 65.06,14.78 66.62,9.91 68.27,3.48 69.92,-2.94 70.09,-5.00 70.27,-7.06 70.27,-7.91 70.26,-8.76 70.53,-9.56 70.80,-10.37 71.32,-11.05 71.83,-11.72 72.53,-12.20 73.24,-12.68 74.05,-12.91 74.87,-13.14 75.72,-13.09 76.57,-13.05 77.36,-12.74 78.15,-12.42 78.80,-11.87 79.45,-11.33 79.89,-10.60 80.33,-9.87 80.51,-9.04 80.70,-8.21 80.61,-7.37 80.52,-6.52 80.16,-5.75 79.80,-4.98 79.22,-4.36 78.64,-3.74 77.89,-3.34 77.14,-2.94 76.30,-2.80 75.46,-2.66 74.62,-2.80 73.78,-2.94 73.03,-3.33 72.28,-3.73 71.69,-4.34 71.11,-4.96 70.75,-5.73 70.39,-6.50 70.30,-7.35 70.20,-8.19 70.39,-9.02 70.57,-9.85 71.00,-10.58 71.44,-11.31 72.09,-11.86 72.73,-12.41 73.52,-12.73 74.31,-13.05 75.16,-13.09 76.01,-13.14 76.83,-12.91 77.65,-12.69 78.35,-12.21 79.06,-11.74 79.57,-11.06 80.09,-10.39 80.36,-9.58 80.63,-8.78 80.63,-8.78 80.63,-8.78 82.51,-4.05 84.39,0.67 86.34,6.68 88.29,12.69 87.52,18.58 86.75,24.47 85.03,28.86 83.31,33.25 80.23,38.90 77.14,44.54 74.82,48.48 72.49,52.41 68.42,58.10 64.34,63.79 60.10,66.97 55.86,70.15 51.10,70.35 46.33,70.56 42.37,67.80 38.40,65.05 35.87,61.36 33.34,57.66 30.79,52.89 28.23,48.12 25.93,43.04 23.63,37.95 22.07,33.61 20.51,29.27 19.20,23.39 17.88,17.51 17.45,13.25 17.03,9.00 16.89,4.43 16.75,-0.12 16.93,-5.09 17.10,-10.06 17.69,-14.82 18.28,-19.59 19.16,-23.81 20.04,-28.03 22.01,-33.49 23.99,-38.96 25.38,-43.65 26.77,-48.34 27.34,-48.92 27.91,-49.49 28.60,-49.92 29.29,-50.34 30.06,-50.59 30.83,-50.83 31.64,-50.89 32.45,-50.94 33.24,-50.80 34.04,-50.66 34.78,-50.33 35.52,-50.01 36.17,-49.51 36.81,-49.02 37.31,-48.38 37.81,-47.75 38.15,-47.01 38.49,-46.28 38.64,-45.48 38.79,-44.68 38.75,-43.88 38.71,-43.07 38.47,-42.29 38.24,-41.52 37.82,-40.82 37.41,-40.12 36.31,-38.67 35.21,-37.22 33.37,-32.26 31.53,-27.31 29.62,-21.70 27.71,-16.09 24.60,-11.90 21.49,-7.71 17.61,-3.10 13.74,1.50 9.39,3.17 5.03,4.85 4.38,5.38 3.72,5.91 2.96,6.27 2.20,6.63 1.37,6.80 0.55,6.97 -0.29,6.93 -1.13,6.90 -1.94,6.66 -2.75,6.42 -3.48,6.00 -4.20,5.58 -4.81,4.99 -5.42,4.41 -5.87,3.70 -6.32,2.98 -6.58,2.18 -6.85,1.38 -6.92,0.54 -6.98,-0.29 -6.85,-1.12 -6.71,-1.95 -6.38,-2.73 -6.05,-3.50 -5.54,-4.17 -5.03,-4.85 -5.03,-4.85 L -5.03,-4.85 Z"></path></g><g transform="translate(143.50995994958794 66.73584312425669) rotate(0 9.205726710151794 -14.306891022581908)" stroke="none"><path fill="#000000" d="M -7.45,-2.82 Q -7.45,-2.82 -7.94,-7.72 -8.43,-12.61 -5.85,-18.15 -3.27,-23.70 -0.10,-27.73 3.06,-31.75 8.49,-31.55 13.92,-31.34 14.47,-31.99 15.03,-32.63 15.76,-33.07 16.49,-33.50 17.32,-33.68 18.15,-33.86 19.00,-33.76 19.84,-33.66 20.61,-33.30 21.38,-32.94 21.99,-32.35 22.61,-31.76 23.00,-31.01 23.39,-30.26 23.53,-29.42 23.66,-28.58 23.52,-27.74 23.37,-26.90 22.97,-26.15 22.57,-25.40 21.95,-24.82 21.33,-24.24 20.56,-23.89 19.78,-23.54 18.94,-23.45 18.09,-23.36 17.26,-23.55 16.43,-23.74 15.71,-24.18 14.98,-24.63 14.44,-25.28 13.89,-25.93 13.58,-26.72 13.27,-27.51 13.23,-28.36 13.19,-29.21 13.42,-30.03 13.65,-30.84 14.13,-31.54 14.61,-32.24 15.29,-32.75 15.97,-33.26 16.78,-33.53 17.59,-33.80 18.44,-33.79 19.29,-33.79 20.09,-33.51 20.90,-33.24 21.57,-32.72 22.24,-32.20 22.71,-31.49 23.19,-30.79 23.41,-29.97 23.63,-29.14 23.58,-28.30 23.53,-27.45 23.21,-26.66 22.89,-25.87 22.89,-25.87 22.89,-25.87 21.68,-18.72 20.46,-11.56 17.57,-7.70 14.67,-3.83 11.06,-0.50 7.45,2.82 7.00,3.67 6.56,4.53 5.92,5.24 5.28,5.96 4.49,6.51 3.70,7.06 2.80,7.40 1.90,7.74 0.95,7.85 -0.00,7.97 -0.95,7.85 -1.90,7.74 -2.80,7.39 -3.70,7.05 -4.49,6.51 -5.28,5.96 -5.92,5.24 -6.56,4.52 -7.00,3.67 -7.45,2.82 -7.68,1.89 -7.91,0.95 -7.91,-0.00 -7.91,-0.96 -7.68,-1.89 -7.45,-2.82 -7.45,-2.82 L -7.45,-2.82 Z"></path></g><g transform="translate(143.02275032671423 112.1490795438333) rotate(0 11.624608540271765 8.143655580963241)" stroke="none"><path fill="#000000" d="M 6.02,-6.29 Q 6.02,-6.29 10.51,-5.34 15.00,-4.39 18.90,-2.07 22.80,0.24 24.24,5.93 25.68,11.63 26.36,12.14 27.04,12.65 27.52,13.35 28.00,14.05 28.23,14.87 28.46,15.68 28.42,16.53 28.38,17.38 28.07,18.17 27.76,18.96 27.22,19.61 26.67,20.27 25.94,20.71 25.22,21.15 24.39,21.34 23.56,21.53 22.71,21.44 21.87,21.35 21.10,21.00 20.32,20.65 19.70,20.07 19.08,19.49 18.68,18.74 18.28,17.99 18.13,17.15 17.99,16.31 18.12,15.47 18.26,14.63 18.65,13.88 19.04,13.13 19.66,12.54 20.27,11.95 21.04,11.59 21.81,11.23 22.65,11.13 23.50,11.04 24.33,11.21 25.16,11.39 25.89,11.82 26.62,12.26 27.18,12.90 27.73,13.55 28.05,14.34 28.37,15.12 28.42,15.97 28.47,16.82 28.25,17.64 28.02,18.46 27.55,19.17 27.08,19.87 26.41,20.39 25.73,20.91 24.93,21.19 24.12,21.46 23.27,21.47 22.42,21.47 21.62,21.20 20.81,20.94 20.81,20.94 20.81,20.94 13.38,22.04 5.95,23.14 1.11,19.16 -3.71,15.18 -4.87,10.74 -6.02,6.29 -6.69,5.48 -7.35,4.67 -7.80,3.72 -8.26,2.77 -8.47,1.74 -8.68,0.71 -8.64,-0.33 -8.60,-1.38 -8.31,-2.39 -8.02,-3.40 -7.50,-4.31 -6.97,-5.22 -6.25,-5.98 -5.52,-6.74 -4.63,-7.30 -3.75,-7.86 -2.75,-8.20 -1.75,-8.53 -0.71,-8.62 0.33,-8.70 1.37,-8.54 2.40,-8.37 3.37,-7.96 4.34,-7.55 5.18,-6.92 6.02,-6.29 6.02,-6.29 L 6.02,-6.29 Z"></path></g><g transform="translate(10 175.26045882411313) rotate(0 12.769834720457766 15.941838308413594)" stroke="none"><path fill="#000000" d="M -0.54,-1.29 Q -0.54,-1.29 -0.26,-2.16 0.02,-3.03 1.37,-2.95 2.72,-2.86 3.72,-1.37 4.71,0.11 4.75,1.32 4.79,2.53 5.11,4.69 5.43,6.86 5.74,8.23 6.06,9.61 6.46,11.08 6.86,12.55 7.31,13.99 7.76,15.43 8.19,16.90 8.61,18.36 9.03,19.57 9.44,20.77 9.81,21.80 10.18,22.83 11.00,24.49 11.82,26.15 12.56,27.08 13.31,28.02 14.54,28.56 15.77,29.10 17.05,29.17 18.33,29.24 19.21,28.44 20.08,27.63 20.66,26.27 21.23,24.91 21.50,22.88 21.76,20.86 21.69,19.25 21.63,17.63 21.51,15.93 21.38,14.22 21.25,12.60 21.12,10.97 21.03,9.70 20.93,8.44 21.89,6.49 22.86,4.55 22.88,4.34 22.90,4.12 22.99,3.93 23.08,3.74 23.23,3.58 23.37,3.43 23.56,3.33 23.75,3.23 23.95,3.19 24.16,3.16 24.37,3.19 24.58,3.22 24.77,3.32 24.96,3.42 25.11,3.58 25.25,3.73 25.34,3.92 25.43,4.11 25.46,4.33 25.48,4.54 25.44,4.74 25.39,4.95 25.28,5.13 25.17,5.32 25.01,5.46 24.85,5.59 24.65,5.67 24.46,5.75 24.24,5.76 24.03,5.78 23.83,5.72 23.62,5.66 23.45,5.55 23.27,5.43 23.14,5.26 23.01,5.09 22.94,4.89 22.87,4.69 22.87,4.48 22.87,4.26 22.94,4.06 23.01,3.86 23.13,3.69 23.26,3.52 23.44,3.40 23.61,3.28 23.82,3.22 24.02,3.17 24.23,3.18 24.45,3.19 24.64,3.26 24.84,3.34 25.00,3.48 25.17,3.62 25.28,3.80 25.39,3.98 25.43,4.19 25.48,4.39 25.48,4.39 25.48,4.39 26.75,6.10 28.01,7.81 28.14,9.10 28.27,10.40 28.40,12.05 28.54,13.70 28.67,15.56 28.81,17.42 28.85,19.50 28.90,21.58 28.69,23.19 28.49,24.81 28.11,26.16 27.73,27.52 27.20,28.72 26.68,29.92 26.01,31.01 25.34,32.09 24.57,32.93 23.80,33.76 22.05,34.69 20.30,35.62 18.70,35.78 17.10,35.94 15.50,35.72 13.90,35.51 12.52,35.01 11.14,34.52 9.71,33.50 8.28,32.48 7.13,30.88 5.97,29.28 5.40,28.18 4.84,27.09 4.39,26.05 3.95,25.01 3.57,23.90 3.20,22.79 2.79,21.46 2.39,20.14 1.98,18.67 1.57,17.20 1.16,15.66 0.76,14.12 0.38,12.55 0.00,10.98 -0.35,9.41 -0.70,7.83 -0.93,6.28 -1.17,4.73 -0.94,2.86 -0.71,1.00 0.74,1.54 2.19,2.09 1.37,1.69 0.54,1.29 0.38,1.34 0.22,1.39 0.05,1.39 -0.11,1.40 -0.28,1.36 -0.44,1.33 -0.60,1.26 -0.75,1.18 -0.88,1.08 -1.01,0.97 -1.11,0.83 -1.22,0.70 -1.28,0.54 -1.35,0.38 -1.38,0.22 -1.40,0.05 -1.39,-0.11 -1.37,-0.28 -1.32,-0.44 -1.27,-0.60 -1.17,-0.75 -1.08,-0.89 -0.96,-1.01 -0.84,-1.12 -0.69,-1.21 -0.54,-1.29 -0.54,-1.29 L -0.54,-1.29 Z"></path></g><g transform="translate(50.6236711124202 207.83015188398645) rotate(0 7.025895186607158 -16.056182983155395)" stroke="none"><path fill="#000000" d="M -1.98,-0.21 Q -1.98,-0.21 -2.25,-1.84 -2.52,-3.46 -2.53,-4.76 -2.53,-6.06 -2.63,-7.45 -2.73,-8.83 -2.86,-10.55 -2.98,-12.27 -3.13,-14.10 -3.27,-15.93 -3.47,-17.75 -3.66,-19.57 -3.90,-21.20 -4.14,-22.83 -4.32,-24.24 -4.50,-25.65 -4.38,-26.36 -4.25,-27.07 -4.26,-27.40 -4.27,-27.72 -4.20,-28.04 -4.13,-28.36 -3.98,-28.66 -3.84,-28.95 -3.62,-29.20 -3.41,-29.45 -3.15,-29.64 -2.88,-29.84 -2.58,-29.96 -2.28,-30.08 -1.95,-30.13 -1.63,-30.18 -1.30,-30.15 -0.98,-30.12 -0.67,-30.01 -0.36,-29.90 -0.08,-29.72 0.18,-29.54 0.40,-29.30 0.63,-29.06 0.79,-28.77 0.95,-28.49 1.03,-28.17 1.12,-27.85 2.50,-25.68 3.89,-23.51 5.00,-21.54 6.11,-19.57 7.43,-16.78 8.75,-13.99 10.00,-11.49 11.26,-8.99 12.56,-6.92 13.86,-4.84 14.94,-3.20 16.01,-1.56 16.67,-0.58 17.33,0.39 17.82,0.67 18.31,0.94 18.45,1.32 18.60,1.70 18.65,2.10 18.71,2.50 18.66,2.90 18.62,3.30 18.48,3.68 18.34,4.06 18.11,4.40 17.88,4.74 17.58,5.01 17.28,5.28 16.93,5.47 16.57,5.66 16.18,5.76 15.78,5.86 15.38,5.87 14.97,5.87 14.58,5.78 14.19,5.69 13.83,5.50 13.47,5.32 13.16,5.05 12.85,4.78 12.62,4.45 12.39,4.12 12.31,2.29 12.22,0.46 12.05,-0.93 11.88,-2.33 11.34,-4.92 10.81,-7.51 9.93,-10.70 9.06,-13.89 8.24,-17.02 7.43,-20.14 6.89,-22.94 6.35,-25.75 6.05,-27.94 5.75,-30.14 6.51,-32.88 7.28,-35.62 7.30,-35.83 7.32,-36.04 7.41,-36.24 7.49,-36.43 7.64,-36.59 7.78,-36.74 7.97,-36.84 8.16,-36.94 8.37,-36.98 8.58,-37.01 8.79,-36.98 9.00,-36.95 9.19,-36.85 9.37,-36.75 9.52,-36.60 9.67,-36.44 9.76,-36.25 9.85,-36.06 9.87,-35.85 9.90,-35.64 9.85,-35.43 9.81,-35.22 9.70,-35.04 9.59,-34.86 9.43,-34.72 9.27,-34.58 9.07,-34.50 8.88,-34.42 8.66,-34.41 8.45,-34.39 8.25,-34.45 8.04,-34.51 7.87,-34.62 7.69,-34.74 7.56,-34.91 7.43,-35.08 7.36,-35.28 7.29,-35.48 7.29,-35.69 7.29,-35.90 7.36,-36.11 7.42,-36.31 7.55,-36.48 7.68,-36.65 7.85,-36.77 8.03,-36.89 8.23,-36.95 8.44,-37.01 8.65,-37.00 8.86,-36.99 9.06,-36.91 9.26,-36.83 9.42,-36.69 9.58,-36.56 9.69,-36.38 9.80,-36.19 9.85,-35.99 9.90,-35.78 9.90,-35.78 9.90,-35.78 10.96,-33.53 12.03,-31.28 12.50,-29.24 12.97,-27.20 13.62,-24.58 14.27,-21.97 15.12,-18.84 15.96,-15.72 16.84,-12.30 17.72,-8.88 18.29,-5.85 18.87,-2.83 18.59,-0.94 18.31,0.94 18.45,1.32 18.60,1.70 18.65,2.10 18.71,2.50 18.66,2.90 18.62,3.30 18.48,3.68 18.34,4.06 18.11,4.40 17.88,4.74 17.58,5.01 17.28,5.28 16.93,5.47 16.57,5.66 16.18,5.76 15.78,5.86 15.38,5.87 14.98,5.87 14.58,5.78 14.19,5.69 13.83,5.50 13.47,5.32 13.16,5.05 12.85,4.79 12.62,4.45 12.39,4.12 12.16,3.81 11.93,3.50 11.39,2.25 10.85,1.01 10.19,-0.81 9.54,-2.63 8.61,-4.91 7.68,-7.20 6.44,-9.69 5.20,-12.17 3.74,-14.80 2.29,-17.43 1.21,-19.37 0.13,-21.31 -0.92,-23.34 -1.99,-25.37 -3.12,-26.22 -4.25,-27.07 -4.26,-27.40 -4.27,-27.72 -4.20,-28.04 -4.13,-28.36 -3.98,-28.66 -3.84,-28.95 -3.62,-29.20 -3.41,-29.45 -3.15,-29.64 -2.88,-29.84 -2.58,-29.96 -2.28,-30.08 -1.95,-30.13 -1.63,-30.18 -1.30,-30.15 -0.98,-30.12 -0.67,-30.01 -0.36,-29.90 -0.08,-29.72 0.18,-29.54 0.40,-29.30 0.63,-29.06 0.79,-28.77 0.95,-28.49 1.03,-28.17 1.12,-27.85 1.29,-27.18 1.45,-26.52 1.69,-25.08 1.92,-23.64 2.12,-21.97 2.32,-20.30 2.57,-18.42 2.82,-16.54 3.05,-14.63 3.28,-12.71 3.41,-10.87 3.53,-9.02 3.52,-7.38 3.52,-5.74 3.36,-4.29 3.21,-2.84 2.59,-1.31 1.98,0.21 1.92,0.45 1.87,0.68 1.76,0.89 1.65,1.11 1.49,1.29 1.34,1.47 1.14,1.61 0.94,1.75 0.72,1.84 0.50,1.93 0.26,1.96 0.02,1.99 -0.21,1.96 -0.45,1.94 -0.67,1.85 -0.90,1.77 -1.10,1.64 -1.30,1.50 -1.46,1.33 -1.62,1.15 -1.74,0.94 -1.85,0.72 -1.91,0.49 -1.97,0.26 -1.98,0.02 -1.98,-0.21 -1.98,-0.21 L -1.98,-0.21 Z"></path></g><g transform="translate(84.32135510109947 210.18222300454545) rotate(0 12.503434721728809 -17.689558538348592)" stroke="none"><path fill="#000000" d="M -2.34,0.29 Q -2.34,0.29 -2.89,-1.39 -3.45,-3.09 -3.63,-4.59 -3.81,-6.09 -3.96,-7.56 -4.10,-9.03 -4.26,-10.64 -4.42,-12.26 -4.53,-14.06 -4.64,-15.87 -4.68,-17.78 -4.72,-19.69 -4.66,-21.81 -4.60,-23.93 -4.27,-26.08 -3.95,-28.23 -3.03,-30.31 -2.11,-32.40 -0.56,-34.10 0.98,-35.79 3.02,-36.69 5.05,-37.59 7.29,-37.41 9.54,-37.22 11.70,-35.66 13.87,-34.11 15.06,-32.29 16.26,-30.48 16.77,-28.40 17.27,-26.33 17.16,-24.34 17.05,-22.34 16.34,-20.50 15.63,-18.66 14.42,-17.21 13.21,-15.77 11.80,-14.74 10.40,-13.71 8.86,-12.85 7.31,-12.00 6.35,-11.41 5.38,-10.82 4.73,-13.25 4.09,-15.68 5.79,-15.52 7.49,-15.36 9.38,-15.09 11.27,-14.83 13.56,-14.36 15.86,-13.89 17.99,-13.21 20.11,-12.53 21.88,-11.64 23.64,-10.74 25.40,-8.55 27.15,-6.36 27.32,-6.23 27.48,-6.09 27.60,-5.91 27.71,-5.73 27.76,-5.53 27.81,-5.32 27.79,-5.11 27.77,-4.90 27.69,-4.70 27.60,-4.51 27.46,-4.35 27.32,-4.19 27.13,-4.09 26.94,-3.99 26.74,-3.95 26.53,-3.91 26.32,-3.94 26.11,-3.97 25.92,-4.07 25.73,-4.16 25.58,-4.31 25.43,-4.46 25.34,-4.65 25.24,-4.85 25.21,-5.06 25.19,-5.27 25.23,-5.48 25.27,-5.68 25.38,-5.87 25.48,-6.05 25.64,-6.19 25.80,-6.33 26.00,-6.42 26.19,-6.50 26.40,-6.51 26.62,-6.53 26.82,-6.48 27.03,-6.42 27.21,-6.31 27.38,-6.19 27.52,-6.03 27.65,-5.86 27.72,-5.66 27.79,-5.46 27.80,-5.25 27.80,-5.03 27.74,-4.83 27.67,-4.63 27.55,-4.46 27.42,-4.29 27.25,-4.16 27.07,-4.04 26.87,-3.98 26.67,-3.92 26.46,-3.93 26.24,-3.93 26.04,-4.01 25.85,-4.08 25.85,-4.08 25.85,-4.08 23.39,-4.31 20.94,-4.54 19.44,-5.07 17.94,-5.59 16.18,-6.12 14.42,-6.66 12.33,-7.06 10.25,-7.46 8.23,-7.74 6.21,-8.01 3.73,-8.80 1.26,-9.59 0.72,-12.54 0.19,-15.49 1.06,-16.27 1.94,-17.05 2.97,-17.64 4.00,-18.22 6.16,-19.38 8.31,-20.53 9.59,-21.77 10.87,-23.01 10.76,-25.02 10.65,-27.03 10.06,-28.00 9.46,-28.98 8.67,-29.90 7.88,-30.81 6.58,-31.06 5.27,-31.31 4.48,-30.54 3.70,-29.78 3.16,-28.45 2.63,-27.13 2.34,-25.40 2.04,-23.68 1.96,-21.77 1.87,-19.86 1.93,-18.04 1.98,-16.22 2.06,-14.49 2.14,-12.77 2.23,-11.12 2.33,-9.48 2.39,-8.05 2.44,-6.62 2.50,-5.24 2.57,-3.85 2.45,-2.07 2.34,-0.29 2.34,-0.01 2.35,0.27 2.28,0.55 2.21,0.82 2.08,1.08 1.95,1.33 1.76,1.54 1.57,1.76 1.34,1.92 1.11,2.08 0.84,2.19 0.57,2.29 0.29,2.33 0.01,2.36 -0.27,2.33 -0.55,2.30 -0.82,2.20 -1.08,2.10 -1.32,1.94 -1.56,1.77 -1.75,1.56 -1.94,1.35 -2.07,1.10 -2.20,0.85 -2.27,0.57 -2.34,0.29 -2.34,0.29 L -2.34,0.29 Z"></path></g><g transform="translate(132.67020043209777 182.93735618689902) rotate(0 -5.19450969483114 12.805726279199916)" stroke="none"><path fill="#000000" d="M 0,2.10 Q 0,2.10 -1.36,2.57 -2.73,3.04 -4.32,2.98 -5.90,2.91 -7.42,2.94 -8.94,2.97 -10.38,3.09 -11.82,3.21 -13.12,3.42 -14.42,3.63 -15.61,3.93 -16.80,4.23 -17.97,4.87 -19.15,5.51 -18.15,6.24 -17.14,6.98 -16.44,7.91 -15.74,8.83 -14.92,9.99 -14.11,11.14 -13.31,12.31 -12.52,13.48 -11.58,14.74 -10.65,15.99 -9.74,16.93 -8.84,17.88 -7.91,18.67 -6.97,19.46 -6.07,20.10 -5.17,20.75 -3.41,21.31 -1.64,21.86 -0.05,21.69 1.54,21.52 3.49,20.67 5.43,19.82 6.89,18.79 8.35,17.75 9.62,17.11 10.89,16.46 11.02,16.29 11.15,16.13 11.32,16.01 11.50,15.89 11.70,15.83 11.91,15.77 12.12,15.79 12.33,15.80 12.53,15.88 12.73,15.96 12.89,16.09 13.05,16.23 13.16,16.41 13.27,16.60 13.32,16.80 13.36,17.01 13.34,17.22 13.31,17.43 13.22,17.63 13.13,17.82 12.99,17.97 12.84,18.13 12.65,18.23 12.47,18.33 12.26,18.36 12.05,18.39 11.84,18.36 11.63,18.32 11.44,18.22 11.25,18.12 11.11,17.97 10.96,17.82 10.87,17.62 10.78,17.43 10.76,17.22 10.74,17.01 10.78,16.80 10.83,16.59 10.94,16.41 11.05,16.23 11.21,16.09 11.37,15.95 11.57,15.88 11.77,15.80 11.98,15.79 12.19,15.77 12.40,15.83 12.60,15.89 12.78,16.01 12.95,16.13 13.08,16.30 13.21,16.47 13.28,16.67 13.35,16.87 13.34,17.08 13.34,17.29 13.28,17.50 13.21,17.70 13.21,17.70 13.21,17.70 13.05,19.74 12.88,21.79 12.02,22.99 11.16,24.20 9.89,25.20 8.61,26.21 7.19,26.92 5.77,27.64 4.30,28.14 2.84,28.65 1.32,28.86 -0.18,29.08 -1.74,28.95 -3.29,28.83 -4.94,28.39 -6.60,27.94 -8.00,27.23 -9.39,26.52 -10.56,25.64 -11.73,24.76 -12.92,23.65 -14.10,22.54 -15.16,21.26 -16.22,19.98 -17.17,18.61 -18.11,17.24 -18.84,16.13 -19.58,15.03 -20.34,13.96 -21.10,12.89 -21.95,11.77 -22.80,10.65 -23.46,9.60 -24.11,8.56 -24.61,7.28 -25.10,6.01 -25.02,4.53 -24.94,3.06 -24.08,1.68 -23.21,0.30 -22.02,-0.46 -20.82,-1.23 -19.49,-1.68 -18.15,-2.12 -16.68,-2.39 -15.21,-2.65 -13.73,-2.79 -12.24,-2.93 -10.64,-3.02 -9.03,-3.11 -7.36,-3.12 -5.68,-3.14 -4.21,-3.09 -2.73,-3.04 -1.36,-2.57 0,-2.10 0.25,-2.06 0.50,-2.03 0.73,-1.94 0.97,-1.85 1.18,-1.71 1.39,-1.57 1.56,-1.38 1.72,-1.19 1.84,-0.96 1.96,-0.74 2.02,-0.49 2.08,-0.25 2.08,0.00 2.08,0.25 2.02,0.49 1.96,0.74 1.84,0.96 1.72,1.19 1.56,1.38 1.39,1.57 1.18,1.71 0.97,1.85 0.73,1.94 0.50,2.03 0.25,2.06 -0.00,2.10 -0.00,2.10 L 0,2.10 Z"></path></g><g transform="translate(121.08243910423153 198.1278198076268) rotate(0 6.426537118856686 -1.0943571065065498)" stroke="none"><path fill="#000000" d="M -0.53,-2.75 Q -0.53,-2.75 1.52,-3.34 3.59,-3.94 5.49,-4.07 7.38,-4.19 10.02,-3.84 12.66,-3.48 12.87,-3.48 13.08,-3.48 13.28,-3.40 13.48,-3.33 13.65,-3.20 13.82,-3.07 13.93,-2.89 14.05,-2.71 14.10,-2.51 14.16,-2.30 14.14,-2.09 14.13,-1.88 14.04,-1.68 13.96,-1.49 13.82,-1.33 13.68,-1.17 13.50,-1.06 13.31,-0.96 13.10,-0.91 12.90,-0.87 12.69,-0.90 12.47,-0.92 12.28,-1.02 12.09,-1.11 11.94,-1.26 11.79,-1.41 11.69,-1.60 11.60,-1.79 11.57,-2.00 11.53,-2.21 11.57,-2.42 11.61,-2.62 11.71,-2.81 11.82,-3.00 11.97,-3.14 12.13,-3.28 12.32,-3.37 12.52,-3.46 12.73,-3.47 12.94,-3.49 13.15,-3.44 13.36,-3.39 13.54,-3.28 13.72,-3.17 13.85,-3.01 13.99,-2.84 14.06,-2.64 14.14,-2.44 14.14,-2.23 14.15,-2.02 14.09,-1.81 14.03,-1.61 13.91,-1.44 13.79,-1.26 13.61,-1.14 13.44,-1.01 13.24,-0.95 13.04,-0.88 13.04,-0.88 13.04,-0.88 10.68,0.19 8.33,1.27 6.57,1.78 4.82,2.29 2.68,2.52 0.53,2.75 0.20,2.77 -0.13,2.79 -0.46,2.74 -0.80,2.68 -1.11,2.55 -1.41,2.41 -1.68,2.21 -1.95,2.00 -2.16,1.74 -2.38,1.47 -2.52,1.17 -2.66,0.86 -2.73,0.53 -2.79,0.20 -2.77,-0.13 -2.76,-0.47 -2.66,-0.79 -2.56,-1.11 -2.39,-1.40 -2.22,-1.70 -1.99,-1.94 -1.75,-2.18 -1.46,-2.36 -1.18,-2.54 -0.86,-2.64 -0.53,-2.75 -0.53,-2.75 L -0.53,-2.75 Z"></path></g><g transform="translate(152.04968114748226 210.50888521423303) rotate(0 9.007142772686166 -11.874700277537272)" stroke="none"><path fill="#000000" d="M -1.54,-0.45 Q -1.54,-0.45 -1.79,-2.08 -2.05,-3.72 -1.78,-5.12 -1.51,-6.52 -1.31,-8.15 -1.11,-9.77 -1.01,-11.57 -0.91,-13.37 -0.88,-15.22 -0.84,-17.08 -0.80,-18.85 -0.76,-20.63 -0.49,-22.23 -0.21,-23.83 0.96,-25.34 2.15,-26.86 3.79,-27.30 5.42,-27.73 7.07,-27.06 8.72,-26.39 10.01,-25.01 11.30,-23.64 12.39,-21.83 13.48,-20.02 14.55,-17.86 15.62,-15.70 16.60,-13.32 17.58,-10.95 18.35,-8.70 19.11,-6.46 19.60,-4.67 20.09,-2.89 19.72,-0.52 19.34,1.85 19.37,2.06 19.39,2.27 19.34,2.48 19.29,2.68 19.18,2.86 19.07,3.04 18.90,3.18 18.74,3.32 18.54,3.39 18.34,3.47 18.13,3.48 17.92,3.49 17.72,3.43 17.51,3.37 17.34,3.25 17.16,3.13 17.04,2.96 16.91,2.79 16.84,2.58 16.78,2.38 16.78,2.17 16.78,1.96 16.85,1.76 16.92,1.56 17.05,1.39 17.18,1.22 17.36,1.10 17.54,0.99 17.74,0.93 17.95,0.88 18.16,0.89 18.37,0.90 18.57,0.98 18.76,1.07 18.93,1.20 19.09,1.34 19.19,1.53 19.30,1.71 19.34,1.92 19.39,2.13 19.36,2.34 19.34,2.55 19.25,2.74 19.16,2.93 19.01,3.08 18.86,3.24 18.67,3.34 18.48,3.43 18.27,3.46 18.06,3.50 17.85,3.46 17.64,3.42 17.46,3.32 17.27,3.22 17.13,3.06 16.98,2.91 16.89,2.72 16.81,2.52 16.81,2.52 16.81,2.52 15.37,0.66 13.93,-1.19 13.48,-2.82 13.02,-4.46 12.37,-6.52 11.72,-8.58 10.86,-10.75 10.00,-12.92 9.03,-14.88 8.07,-16.84 7.25,-18.27 6.44,-19.70 6.02,-21.18 5.60,-22.65 5.45,-21.53 5.31,-20.42 5.24,-18.67 5.16,-16.92 5.09,-14.96 5.02,-13.00 4.89,-11.03 4.76,-9.06 4.55,-7.26 4.33,-5.45 4.03,-3.74 3.73,-2.02 2.64,-0.78 1.54,0.45 1.46,0.63 1.39,0.80 1.27,0.96 1.15,1.11 1.00,1.24 0.85,1.36 0.68,1.44 0.50,1.52 0.31,1.56 0.12,1.60 -0.06,1.59 -0.26,1.58 -0.44,1.53 -0.63,1.47 -0.80,1.38 -0.97,1.28 -1.11,1.14 -1.25,1.01 -1.35,0.84 -1.45,0.68 -1.51,0.50 -1.57,0.31 -1.59,0.12 -1.60,-0.07 -1.57,-0.26 -1.54,-0.45 -1.54,-0.45 L -1.54,-0.45 Z"></path></g><g transform="translate(155.44609083635805 200.4472763126214) rotate(0 4.961433885976476 -0.1633569075459036)" stroke="none"><path fill="#000000" d="M -0.03,-2.71 Q -0.03,-2.71 1.87,-3.01 3.78,-3.31 6.82,-2.47 9.86,-1.63 10.07,-1.61 10.28,-1.58 10.47,-1.49 10.67,-1.40 10.82,-1.25 10.97,-1.11 11.07,-0.92 11.17,-0.73 11.20,-0.52 11.23,-0.31 11.19,-0.10 11.16,0.10 11.06,0.29 10.96,0.47 10.80,0.62 10.64,0.76 10.45,0.85 10.26,0.94 10.05,0.96 9.83,0.98 9.63,0.93 9.42,0.88 9.24,0.77 9.06,0.66 8.92,0.50 8.79,0.33 8.71,0.14 8.63,-0.05 8.62,-0.26 8.61,-0.48 8.67,-0.68 8.73,-0.89 8.85,-1.06 8.97,-1.23 9.14,-1.36 9.31,-1.49 9.52,-1.55 9.72,-1.62 9.93,-1.62 10.14,-1.62 10.34,-1.55 10.54,-1.48 10.71,-1.35 10.88,-1.22 11.00,-1.04 11.12,-0.86 11.17,-0.66 11.22,-0.45 11.21,-0.24 11.20,-0.03 11.12,0.16 11.04,0.36 10.90,0.52 10.76,0.68 10.57,0.79 10.39,0.89 10.18,0.94 9.98,0.98 9.98,0.98 9.98,0.98 6.92,2.09 3.87,3.20 1.95,2.95 0.03,2.71 -0.28,2.67 -0.61,2.64 -0.91,2.53 -1.22,2.41 -1.49,2.23 -1.76,2.05 -1.98,1.81 -2.20,1.57 -2.36,1.28 -2.52,0.99 -2.60,0.68 -2.68,0.36 -2.69,0.03 -2.69,-0.28 -2.62,-0.60 -2.54,-0.92 -2.40,-1.21 -2.25,-1.50 -2.04,-1.75 -1.82,-2.00 -1.56,-2.19 -1.29,-2.38 -0.99,-2.50 -0.68,-2.62 -0.36,-2.66 -0.03,-2.71 -0.03,-2.71 L -0.03,-2.71 Z"></path></g><g transform="translate(185.34778449009536 177.12251082743865) rotate(0 12.153808107093937 11.580691387467368)" stroke="none"><path fill="#000000" d="M 2.40,-0.05 Q 2.40,-0.05 2.91,1.62 3.42,3.30 3.43,5.18 3.44,7.06 3.40,9.07 3.35,11.07 3.40,12.96 3.44,14.86 3.66,16.36 3.88,17.86 4.41,18.98 4.95,20.09 6.28,19.47 7.62,18.84 9.16,18.61 10.70,18.38 12.44,18.17 14.18,17.96 15.65,17.79 17.13,17.62 18.55,17.48 19.97,17.34 22.10,18.32 24.24,19.30 24.45,19.32 24.66,19.34 24.85,19.44 25.05,19.53 25.20,19.67 25.35,19.82 25.45,20.01 25.55,20.20 25.58,20.41 25.62,20.62 25.58,20.83 25.54,21.03 25.44,21.22 25.34,21.41 25.19,21.55 25.03,21.70 24.84,21.79 24.65,21.88 24.44,21.90 24.22,21.92 24.02,21.87 23.81,21.83 23.63,21.71 23.45,21.60 23.31,21.44 23.17,21.28 23.10,21.08 23.02,20.88 23.01,20.67 23.00,20.46 23.06,20.25 23.11,20.05 23.23,19.87 23.35,19.70 23.52,19.57 23.69,19.44 23.90,19.38 24.10,19.31 24.31,19.31 24.52,19.31 24.72,19.38 24.92,19.45 25.09,19.58 25.26,19.71 25.38,19.89 25.50,20.06 25.55,20.27 25.61,20.47 25.60,20.69 25.58,20.90 25.50,21.10 25.42,21.29 25.29,21.45 25.15,21.61 24.96,21.72 24.78,21.83 24.57,21.88 24.37,21.92 24.37,21.92 24.37,21.92 22.59,23.09 20.81,24.25 19.41,24.46 18.01,24.66 16.55,24.87 15.08,25.07 13.43,25.29 11.78,25.50 10.14,25.75 8.51,26.00 6.60,26.19 4.70,26.38 3.09,26.03 1.49,25.69 0.34,24.71 -0.80,23.73 -1.34,22.50 -1.88,21.28 -2.06,19.94 -2.25,18.59 -2.42,16.87 -2.59,15.15 -2.73,13.17 -2.87,11.19 -2.99,9.20 -3.10,7.22 -3.18,5.34 -3.27,3.45 -2.83,1.75 -2.40,0.05 -2.37,-0.23 -2.35,-0.52 -2.25,-0.79 -2.15,-1.07 -1.99,-1.31 -1.83,-1.55 -1.62,-1.75 -1.41,-1.94 -1.15,-2.09 -0.90,-2.23 -0.62,-2.30 -0.34,-2.38 -0.05,-2.38 0.23,-2.39 0.51,-2.33 0.80,-2.26 1.06,-2.14 1.32,-2.01 1.54,-1.82 1.76,-1.63 1.93,-1.40 2.10,-1.16 2.21,-0.89 2.32,-0.62 2.36,-0.34 2.40,-0.05 2.40,-0.05 L 2.40,-0.05 Z"></path></g><g stroke-linecap="round"><g transform="translate(70.50264053674073 173.4964054836937) rotate(0 74.49204649302555 17.93456327998308)"><path d="M3.37 -1.37 C48.47 12.87, 92.5 25.77, 149.98 37.24 M-0.99 -0.5 C57.06 15.88, 116.51 31.72, 148.49 36.06" stroke="#000000" stroke-width="4" fill="none"></path></g></g><g transform="translate(102.0026825774512 214.9190056639302) rotate(0 3.945800823841637 15.598817185539474)" stroke="none"><path fill="#000000" d="M 1.78,-0.37 Q 1.78,-0.37 2.40,1.22 3.02,2.81 3.48,4.14 3.94,5.47 4.50,7.13 5.05,8.78 5.52,10.61 5.99,12.43 6.46,14.26 6.92,16.08 7.36,17.92 7.79,19.76 8.20,21.44 8.60,23.13 8.88,24.50 9.16,25.88 9.15,28.34 9.14,30.81 9.17,31.02 9.20,31.23 9.16,31.44 9.12,31.65 9.01,31.83 8.91,32.02 8.75,32.16 8.59,32.30 8.40,32.38 8.20,32.47 7.99,32.48 7.78,32.50 7.57,32.45 7.37,32.40 7.19,32.28 7.01,32.17 6.88,32.00 6.74,31.84 6.67,31.64 6.60,31.44 6.59,31.23 6.59,31.01 6.65,30.81 6.71,30.61 6.83,30.44 6.96,30.26 7.13,30.14 7.30,30.02 7.51,29.95 7.71,29.89 7.92,29.90 8.14,29.90 8.34,29.98 8.53,30.05 8.70,30.18 8.87,30.32 8.98,30.50 9.09,30.68 9.14,30.88 9.20,31.09 9.18,31.30 9.16,31.51 9.08,31.71 8.99,31.90 8.85,32.06 8.71,32.22 8.52,32.32 8.34,32.43 8.13,32.47 7.92,32.51 7.71,32.48 7.50,32.45 7.31,32.35 7.12,32.26 6.97,32.11 6.82,31.96 6.72,31.77 6.63,31.58 6.63,31.58 6.63,31.58 5.31,29.39 3.98,27.21 3.57,25.87 3.15,24.54 2.69,22.85 2.22,21.17 1.73,19.36 1.24,17.56 0.75,15.71 0.25,13.86 -0.17,12.04 -0.60,10.22 -0.91,8.47 -1.21,6.72 -1.43,5.25 -1.65,3.79 -1.71,2.08 -1.78,0.37 -1.79,0.15 -1.81,-0.06 -1.78,-0.28 -1.74,-0.49 -1.66,-0.70 -1.57,-0.90 -1.44,-1.07 -1.31,-1.25 -1.14,-1.39 -0.97,-1.53 -0.78,-1.62 -0.58,-1.72 -0.36,-1.76 -0.15,-1.81 0.06,-1.80 0.28,-1.79 0.49,-1.73 0.70,-1.67 0.89,-1.56 1.08,-1.45 1.24,-1.30 1.40,-1.15 1.52,-0.97 1.64,-0.78 1.71,-0.57 1.78,-0.37 1.78,-0.37 L 1.78,-0.37 Z"></path></g><g transform="translate(110.0607890623487 226.74471951136547) rotate(0 4.894811308929093 -3.0707537845739807)" stroke="none"><path fill="#000000" d="M -1.30,-1.82 Q -1.30,-1.82 -0.46,-3.16 0.36,-4.50 1.55,-5.17 2.73,-5.84 3.89,-6.25 5.04,-6.66 7.14,-7.00 9.24,-7.33 9.44,-7.39 9.65,-7.44 9.86,-7.43 10.07,-7.42 10.27,-7.34 10.47,-7.26 10.63,-7.12 10.79,-6.98 10.90,-6.80 11.01,-6.62 11.05,-6.41 11.10,-6.20 11.07,-5.99 11.05,-5.78 10.96,-5.59 10.87,-5.39 10.72,-5.24 10.57,-5.09 10.39,-4.99 10.20,-4.89 9.99,-4.86 9.78,-4.82 9.57,-4.86 9.36,-4.89 9.17,-4.99 8.98,-5.09 8.84,-5.25 8.69,-5.40 8.61,-5.60 8.52,-5.79 8.50,-6.00 8.47,-6.21 8.52,-6.42 8.57,-6.63 8.68,-6.81 8.79,-6.99 8.95,-7.13 9.11,-7.27 9.31,-7.34 9.51,-7.42 9.72,-7.43 9.93,-7.44 10.14,-7.38 10.34,-7.33 10.52,-7.21 10.69,-7.09 10.82,-6.92 10.95,-6.75 11.01,-6.54 11.08,-6.34 11.08,-6.13 11.08,-5.92 11.01,-5.72 10.94,-5.52 10.81,-5.35 10.68,-5.18 10.51,-5.06 10.33,-4.94 10.33,-4.94 10.33,-4.94 9.12,-3.63 7.91,-2.31 7.16,-1.46 6.40,-0.62 5.39,0.25 4.37,1.12 2.84,1.47 1.30,1.82 1.06,1.95 0.82,2.08 0.56,2.15 0.30,2.22 0.03,2.22 -0.23,2.23 -0.50,2.16 -0.76,2.10 -1.00,1.98 -1.24,1.86 -1.45,1.68 -1.65,1.51 -1.81,1.29 -1.97,1.07 -2.07,0.81 -2.16,0.56 -2.20,0.30 -2.24,0.03 -2.21,-0.23 -2.18,-0.50 -2.09,-0.75 -2.00,-1.01 -1.85,-1.23 -1.70,-1.46 -1.50,-1.64 -1.30,-1.82 -1.30,-1.82 L -1.30,-1.82 Z"></path></g><g transform="translate(110.29389067390548 224.75197682146268) rotate(0 9.92282906789842 5.994522476139423)" stroke="none"><path fill="#000000" d="M 1.84,-2.19 Q 1.84,-2.19 4.25,-0.59 6.67,0.99 8.40,2.33 10.13,3.67 11.80,4.68 13.48,5.69 14.89,6.48 16.29,7.26 18.26,9.00 20.23,10.73 20.42,10.82 20.61,10.92 20.76,11.07 20.91,11.22 21.00,11.41 21.10,11.60 21.13,11.81 21.15,12.02 21.11,12.23 21.07,12.44 20.97,12.62 20.86,12.81 20.70,12.95 20.55,13.09 20.35,13.18 20.15,13.26 19.94,13.28 19.73,13.29 19.52,13.24 19.32,13.19 19.14,13.07 18.96,12.96 18.83,12.79 18.70,12.63 18.62,12.43 18.55,12.23 18.55,12.02 18.54,11.80 18.60,11.60 18.67,11.40 18.79,11.23 18.91,11.05 19.09,10.93 19.26,10.81 19.46,10.74 19.67,10.68 19.88,10.69 20.09,10.69 20.29,10.77 20.49,10.84 20.66,10.98 20.82,11.11 20.93,11.29 21.05,11.47 21.10,11.67 21.15,11.88 21.13,12.09 21.11,12.30 21.03,12.50 20.95,12.69 20.80,12.85 20.66,13.01 20.48,13.11 20.29,13.22 20.08,13.26 19.87,13.30 19.66,13.27 19.45,13.24 19.45,13.24 19.45,13.24 16.34,13.22 13.23,13.20 11.59,12.41 9.94,11.62 7.92,10.43 5.90,9.23 4.01,7.81 2.13,6.40 0.14,4.29 -1.84,2.19 -2.07,1.94 -2.31,1.68 -2.48,1.38 -2.65,1.08 -2.74,0.75 -2.83,0.41 -2.84,0.07 -2.85,-0.27 -2.77,-0.60 -2.70,-0.94 -2.55,-1.25 -2.39,-1.56 -2.17,-1.82 -1.95,-2.09 -1.67,-2.29 -1.39,-2.50 -1.07,-2.63 -0.75,-2.76 -0.41,-2.81 -0.07,-2.86 0.26,-2.83 0.61,-2.79 0.93,-2.68 1.26,-2.57 1.55,-2.38 1.84,-2.19 1.84,-2.19 L 1.84,-2.19 Z"></path></g><g transform="translate(138.16439561148036 237.29637333291248) rotate(0 -1.348578229803934 -8.73860114967465)" stroke="none"><path fill="#000000" d="M -2.03,0.35 Q -2.03,0.35 -2.73,-0.77 -3.42,-1.90 -3.66,-3.23 -3.90,-4.56 -4.16,-6.19 -4.42,-7.83 -4.55,-9.52 -4.68,-11.21 -4.34,-14.26 -3.99,-17.30 -3.99,-17.52 -3.98,-17.73 -3.91,-17.93 -3.83,-18.13 -3.70,-18.29 -3.56,-18.46 -3.38,-18.57 -3.20,-18.68 -3.00,-18.73 -2.79,-18.78 -2.58,-18.76 -2.37,-18.74 -2.17,-18.66 -1.98,-18.57 -1.82,-18.43 -1.66,-18.29 -1.56,-18.10 -1.46,-17.92 -1.42,-17.71 -1.38,-17.50 -1.41,-17.29 -1.44,-17.08 -1.54,-16.89 -1.63,-16.70 -1.78,-16.55 -1.93,-16.40 -2.12,-16.31 -2.32,-16.21 -2.53,-16.19 -2.74,-16.16 -2.95,-16.20 -3.15,-16.24 -3.34,-16.35 -3.52,-16.45 -3.66,-16.61 -3.80,-16.77 -3.89,-16.97 -3.97,-17.16 -3.98,-17.38 -4.00,-17.59 -3.95,-17.79 -3.89,-18.00 -3.78,-18.18 -3.66,-18.36 -3.50,-18.49 -3.33,-18.62 -3.13,-18.69 -2.93,-18.76 -2.72,-18.77 -2.51,-18.77 -2.30,-18.71 -2.10,-18.64 -1.93,-18.52 -1.76,-18.39 -1.63,-18.22 -1.51,-18.05 -1.45,-17.84 -1.39,-17.64 -1.39,-17.64 -1.39,-17.64 -0.29,-14.86 0.79,-12.07 1.19,-10.43 1.58,-8.79 1.84,-7.22 2.09,-5.64 2.33,-4.29 2.58,-2.94 2.30,-1.64 2.03,-0.35 2.04,-0.10 2.05,0.14 2.01,0.38 1.96,0.63 1.86,0.85 1.75,1.08 1.60,1.27 1.44,1.47 1.24,1.62 1.05,1.77 0.82,1.87 0.59,1.97 0.35,2.01 0.10,2.06 -0.14,2.04 -0.39,2.02 -0.62,1.95 -0.86,1.87 -1.07,1.74 -1.28,1.61 -1.46,1.43 -1.63,1.25 -1.76,1.04 -1.89,0.82 -1.96,0.59 -2.03,0.35 -2.03,0.35 L -2.03,0.35 Z"></path></g><g transform="translate(135.20085205449323 215.89904389839717) rotate(0 8.857293579734687 12.10338962702076)" stroke="none"><path fill="#000000" d="M 1.25,-0.63 Q 1.25,-0.63 2.28,0.83 3.30,2.31 4.16,4.08 5.01,5.86 6.17,7.91 7.33,9.96 8.79,12.57 10.25,15.17 11.69,16.99 13.13,18.81 14.42,19.57 15.71,20.32 14.81,19.20 13.91,18.07 13.93,16.02 13.95,13.98 14.20,11.16 14.45,8.34 14.94,6.15 15.43,3.96 15.45,3.75 15.48,3.54 15.57,3.34 15.65,3.15 15.80,3.00 15.94,2.84 16.13,2.74 16.32,2.64 16.53,2.60 16.74,2.57 16.95,2.60 17.16,2.64 17.35,2.73 17.53,2.83 17.68,2.99 17.83,3.14 17.92,3.33 18.01,3.53 18.03,3.74 18.06,3.95 18.01,4.16 17.97,4.36 17.86,4.55 17.75,4.73 17.59,4.87 17.43,5.00 17.23,5.08 17.03,5.16 16.82,5.18 16.61,5.19 16.40,5.13 16.20,5.08 16.02,4.96 15.84,4.84 15.72,4.67 15.59,4.50 15.52,4.30 15.45,4.10 15.45,3.89 15.45,3.68 15.51,3.47 15.58,3.27 15.71,3.10 15.84,2.93 16.01,2.81 16.19,2.69 16.39,2.64 16.60,2.58 16.81,2.59 17.02,2.60 17.22,2.68 17.42,2.75 17.58,2.89 17.74,3.03 17.85,3.21 17.96,3.39 18.01,3.60 18.06,3.81 18.06,3.81 18.06,3.81 18.80,5.92 19.54,8.04 20.14,11.04 20.73,14.05 20.70,16.65 20.67,19.24 19.99,21.59 19.32,23.95 17.92,24.82 16.53,25.70 14.12,25.13 11.71,24.56 10.61,22.93 9.50,21.30 8.24,19.14 6.97,16.99 5.54,14.35 4.10,11.71 3.00,9.61 1.90,7.50 0.90,5.77 -0.09,4.03 -0.67,2.33 -1.25,0.63 -1.31,0.47 -1.37,0.31 -1.38,0.14 -1.40,-0.02 -1.38,-0.18 -1.36,-0.35 -1.29,-0.51 -1.23,-0.67 -1.13,-0.81 -1.04,-0.94 -0.91,-1.05 -0.78,-1.17 -0.63,-1.24 -0.48,-1.32 -0.31,-1.36 -0.14,-1.39 0.02,-1.39 0.18,-1.39 0.35,-1.35 0.51,-1.30 0.66,-1.22 0.81,-1.14 0.94,-1.03 1.06,-0.91 1.16,-0.77 1.25,-0.63 1.25,-0.63 L 1.25,-0.63 Z"></path></g><g transform="translate(164.30341021879576 221.0932052567489) rotate(0 1.365220972714269 6.876549146349248)" stroke="none"><path fill="#000000" d="M 1.97,1.44 Q 1.97,1.44 1.45,2.73 0.93,4.02 0.04,5.16 -0.84,6.30 -1.27,8.09 -1.70,9.89 -1.02,10.71 -0.34,11.53 0.80,11.19 1.94,10.85 2.68,9.33 3.41,7.82 3.61,6.56 3.80,5.31 3.70,4.04 3.61,2.78 4.28,1.80 4.96,0.82 4.75,0.77 4.54,0.73 4.36,0.62 4.18,0.51 4.04,0.35 3.90,0.19 3.82,-0.00 3.74,-0.19 3.73,-0.41 3.72,-0.62 3.77,-0.82 3.83,-1.03 3.95,-1.21 4.06,-1.38 4.23,-1.51 4.40,-1.64 4.60,-1.71 4.80,-1.78 5.01,-1.78 5.23,-1.78 5.43,-1.72 5.63,-1.65 5.80,-1.52 5.97,-1.39 6.09,-1.22 6.21,-1.04 6.27,-0.84 6.33,-0.64 6.32,-0.42 6.31,-0.21 6.23,-0.01 6.15,0.17 6.02,0.34 5.88,0.50 5.70,0.61 5.52,0.72 5.31,0.77 5.10,0.82 4.89,0.79 4.68,0.77 4.49,0.68 4.29,0.60 4.14,0.45 3.98,0.31 3.88,0.12 3.78,-0.06 3.75,-0.27 3.71,-0.48 3.74,-0.69 3.78,-0.90 3.87,-1.08 3.97,-1.27 4.13,-1.42 4.28,-1.57 4.47,-1.66 4.66,-1.75 4.87,-1.77 5.09,-1.80 5.09,-1.80 5.09,-1.80 7.76,0.37 10.44,2.55 10.44,4.63 10.45,6.70 9.92,8.77 9.39,10.83 8.19,12.78 6.99,14.74 5.25,15.90 3.50,17.07 1.68,17.33 -0.14,17.60 -1.85,17.22 -3.57,16.85 -4.81,15.81 -6.06,14.77 -6.68,13.39 -7.31,12.01 -7.39,10.51 -7.46,9.00 -7.07,7.61 -6.67,6.22 -6.15,4.77 -5.63,3.32 -4.87,1.83 -4.11,0.33 -3.04,-0.55 -1.97,-1.44 -1.77,-1.65 -1.57,-1.87 -1.32,-2.03 -1.07,-2.19 -0.80,-2.29 -0.52,-2.38 -0.22,-2.41 0.06,-2.44 0.35,-2.40 0.64,-2.35 0.91,-2.24 1.19,-2.13 1.43,-1.96 1.66,-1.78 1.85,-1.56 2.04,-1.33 2.17,-1.07 2.30,-0.80 2.37,-0.51 2.43,-0.23 2.42,0.06 2.41,0.35 2.34,0.64 2.26,0.92 2.11,1.18 1.97,1.44 1.97,1.44 L 1.97,1.44 Z"></path></g><g transform="translate(172.82769412410562 218.0877839141126) rotate(0 12.619985527506287 8.689601818221604)" stroke="none"><path fill="#000000" d="M 1.78,-0.83 Q 1.78,-0.83 2.79,0.16 3.81,1.16 5.20,2.99 6.60,4.83 7.50,5.94 8.40,7.05 9.38,8.34 10.36,9.63 11.28,10.80 12.20,11.97 12.93,12.79 13.66,13.60 12.36,13.52 11.06,13.43 11.16,11.13 11.25,8.84 11.26,7.65 11.26,6.47 11.50,5.44 11.73,4.42 11.79,4.06 11.86,3.71 12.00,3.38 12.15,3.06 12.37,2.77 12.59,2.49 12.87,2.27 13.15,2.05 13.48,1.90 13.80,1.75 14.15,1.68 14.51,1.62 14.86,1.64 15.22,1.66 15.56,1.76 15.91,1.87 16.21,2.05 16.52,2.23 16.78,2.49 17.03,2.74 17.22,3.04 17.40,3.35 17.51,3.69 17.62,4.03 17.64,4.39 17.67,4.75 18.82,6.69 19.97,8.62 20.69,10.08 21.41,11.55 22.24,12.81 23.07,14.08 22.29,11.96 21.51,9.83 21.63,7.57 21.74,5.31 22.73,1.99 23.72,-1.32 23.75,-1.53 23.79,-1.74 23.89,-1.93 23.98,-2.12 24.14,-2.27 24.29,-2.42 24.48,-2.51 24.67,-2.60 24.89,-2.62 25.10,-2.65 25.30,-2.60 25.51,-2.56 25.69,-2.45 25.88,-2.34 26.02,-2.18 26.16,-2.02 26.24,-1.82 26.32,-1.63 26.33,-1.41 26.34,-1.20 26.29,-1.00 26.23,-0.79 26.11,-0.62 26.00,-0.44 25.83,-0.31 25.66,-0.18 25.46,-0.11 25.26,-0.04 25.05,-0.04 24.83,-0.04 24.63,-0.10 24.43,-0.17 24.26,-0.30 24.09,-0.42 23.97,-0.60 23.85,-0.77 23.79,-0.98 23.73,-1.18 23.74,-1.39 23.75,-1.61 23.83,-1.81 23.90,-2.00 24.04,-2.17 24.18,-2.33 24.36,-2.44 24.54,-2.55 24.75,-2.60 24.95,-2.65 25.17,-2.62 25.38,-2.60 25.57,-2.51 25.76,-2.43 25.92,-2.28 26.07,-2.14 26.18,-1.95 26.28,-1.76 26.31,-1.55 26.35,-1.34 26.35,-1.34 26.35,-1.34 27.39,2.06 28.43,5.47 28.44,7.86 28.45,10.26 28.27,12.69 28.09,15.13 27.32,17.18 26.55,19.23 25.25,19.93 23.94,20.62 21.70,20.06 19.46,19.50 18.66,18.36 17.87,17.22 17.03,15.71 16.19,14.20 15.32,12.54 14.45,10.88 13.67,9.05 12.89,7.23 12.31,5.82 11.73,4.42 11.79,4.06 11.86,3.71 12.00,3.38 12.15,3.06 12.37,2.77 12.59,2.49 12.87,2.27 13.15,2.05 13.48,1.90 13.80,1.75 14.15,1.68 14.51,1.62 14.86,1.64 15.22,1.66 15.56,1.76 15.91,1.87 16.21,2.05 16.52,2.23 16.78,2.49 17.03,2.74 17.22,3.04 17.40,3.35 17.51,3.69 17.62,4.03 17.64,4.39 17.67,4.75 17.44,5.56 17.22,6.38 17.26,7.61 17.31,8.84 17.32,10.42 17.34,12.00 17.19,13.71 17.04,15.42 16.20,16.95 15.36,18.49 13.83,18.94 12.31,19.40 10.60,18.67 8.90,17.94 8.01,16.94 7.12,15.94 6.12,14.65 5.12,13.36 4.27,12.09 3.43,10.81 2.61,9.65 1.79,8.49 0.95,7.37 0.10,6.24 -0.72,4.96 -1.55,3.68 -1.66,2.25 -1.78,0.83 -1.85,0.60 -1.92,0.37 -1.94,0.14 -1.96,-0.09 -1.92,-0.32 -1.88,-0.55 -1.78,-0.77 -1.69,-0.99 -1.55,-1.18 -1.40,-1.37 -1.22,-1.51 -1.03,-1.66 -0.82,-1.76 -0.60,-1.86 -0.37,-1.91 -0.14,-1.95 0.09,-1.94 0.32,-1.93 0.55,-1.86 0.78,-1.80 0.98,-1.68 1.19,-1.56 1.36,-1.39 1.53,-1.23 1.65,-1.03 1.78,-0.82 1.78,-0.82 L 1.78,-0.83 Z"></path></g><g transform="translate(204.0946345532593 221.6812488395908) rotate(0 1.6981919430863854 11.319335817015144)" stroke="none"><path fill="#000000" d="M 1.94,-0.21 Q 1.94,-0.21 2.55,0.40 3.15,1.03 3.29,2.35 3.43,3.67 3.60,6.02 3.76,8.37 3.82,9.73 3.88,11.09 3.95,12.36 4.03,13.63 4.17,14.76 4.31,15.90 4.65,17.58 5.00,19.26 4.59,20.38 4.18,21.50 4.34,21.63 4.51,21.76 4.62,21.94 4.73,22.12 4.78,22.33 4.83,22.54 4.82,22.75 4.80,22.96 4.71,23.15 4.63,23.35 4.48,23.51 4.34,23.66 4.15,23.77 3.97,23.87 3.76,23.91 3.55,23.95 3.34,23.92 3.13,23.89 2.94,23.79 2.75,23.69 2.60,23.54 2.45,23.39 2.36,23.20 2.27,23.01 2.24,22.80 2.21,22.59 2.25,22.38 2.30,22.17 2.40,21.99 2.51,21.80 2.67,21.66 2.83,21.52 3.02,21.44 3.22,21.36 3.43,21.34 3.64,21.33 3.85,21.38 4.05,21.43 4.23,21.55 4.41,21.66 4.54,21.83 4.67,22.00 4.74,22.20 4.82,22.40 4.82,22.61 4.82,22.82 4.76,23.02 4.70,23.23 4.57,23.40 4.45,23.57 4.27,23.69 4.10,23.81 3.90,23.88 3.69,23.94 3.48,23.93 3.27,23.92 3.07,23.85 2.87,23.77 2.87,23.77 2.87,23.77 0.74,21.23 -1.37,18.68 -1.50,17.60 -1.62,16.53 -1.73,15.29 -1.84,14.06 -1.95,12.76 -2.06,11.47 -2.17,10.16 -2.29,8.84 -2.46,6.53 -2.63,4.21 -2.74,2.96 -2.85,1.70 -2.39,0.96 -1.94,0.21 -1.94,-0.01 -1.94,-0.25 -1.88,-0.48 -1.82,-0.71 -1.71,-0.91 -1.60,-1.12 -1.44,-1.30 -1.28,-1.47 -1.08,-1.60 -0.89,-1.74 -0.67,-1.82 -0.45,-1.90 -0.21,-1.93 0.01,-1.95 0.25,-1.92 0.48,-1.89 0.70,-1.81 0.92,-1.72 1.11,-1.58 1.31,-1.45 1.46,-1.27 1.62,-1.09 1.72,-0.88 1.83,-0.67 1.89,-0.44 1.94,-0.21 1.94,-0.21 L 1.94,-0.21 Z"></path></g><g transform="translate(205.9593184322075 221.0932052567489) rotate(0 15.466965377363522 10.927341165390203)" stroke="none"><path fill="#000000" d="M 0.81,-1.80 Q 0.81,-1.80 2.38,-1.61 3.95,-1.41 5.13,-0.77 6.32,-0.12 7.61,0.88 8.90,1.89 10.08,3.08 11.25,4.27 12.43,5.57 13.62,6.88 14.72,8.31 15.83,9.74 16.76,11.39 17.68,13.03 18.40,14.54 19.12,16.05 19.69,17.26 20.26,18.47 20.94,19.54 21.63,20.60 20.03,20.36 18.43,20.12 18.64,18.61 18.84,17.11 19.23,16.11 19.62,15.12 20.07,13.69 20.52,12.27 21.03,10.45 21.54,8.64 22.13,6.79 22.73,4.94 23.43,3.27 24.14,1.60 27.06,-0.32 29.99,-2.25 30.16,-2.38 30.33,-2.50 30.53,-2.57 30.74,-2.63 30.95,-2.63 31.16,-2.63 31.36,-2.56 31.56,-2.49 31.73,-2.35 31.90,-2.22 32.01,-2.05 32.13,-1.87 32.18,-1.66 32.24,-1.46 32.22,-1.25 32.21,-1.03 32.13,-0.84 32.04,-0.64 31.90,-0.48 31.76,-0.32 31.58,-0.21 31.40,-0.11 31.19,-0.06 30.98,-0.02 30.77,-0.05 30.56,-0.07 30.37,-0.17 30.18,-0.26 30.02,-0.41 29.87,-0.56 29.77,-0.74 29.68,-0.93 29.65,-1.14 29.62,-1.35 29.65,-1.56 29.69,-1.77 29.79,-1.96 29.90,-2.14 30.05,-2.29 30.21,-2.43 30.40,-2.52 30.60,-2.60 30.81,-2.62 31.02,-2.64 31.23,-2.60 31.43,-2.55 31.61,-2.43 31.79,-2.32 31.93,-2.16 32.06,-1.99 32.14,-1.80 32.22,-1.60 32.22,-1.39 32.23,-1.17 32.17,-0.97 32.11,-0.77 31.99,-0.59 31.87,-0.42 31.87,-0.42 31.87,-0.42 31.33,2.03 30.80,4.49 30.19,5.85 29.59,7.21 29.00,8.95 28.41,10.68 27.81,12.62 27.20,14.55 26.60,16.20 26.00,17.86 25.40,19.16 24.80,20.46 23.98,21.80 23.15,23.14 21.68,24.38 20.20,25.62 18.21,24.94 16.21,24.27 15.37,22.73 14.53,21.18 13.95,19.97 13.37,18.75 12.73,17.38 12.09,16.00 11.46,14.71 10.82,13.42 9.97,12.19 9.11,10.95 8.01,9.74 6.91,8.52 5.96,7.54 5.02,6.56 3.29,5.23 1.55,3.89 0.37,2.85 -0.81,1.80 -1.01,1.68 -1.22,1.55 -1.39,1.39 -1.55,1.22 -1.68,1.01 -1.80,0.81 -1.87,0.58 -1.94,0.35 -1.96,0.11 -1.97,-0.11 -1.93,-0.35 -1.89,-0.58 -1.79,-0.80 -1.69,-1.02 -1.54,-1.21 -1.40,-1.40 -1.21,-1.54 -1.02,-1.69 -0.80,-1.79 -0.58,-1.89 -0.35,-1.93 -0.12,-1.97 0.11,-1.96 0.35,-1.94 0.58,-1.87 0.81,-1.80 0.81,-1.80 L 0.81,-1.80 Z"></path></g></svg>