<svg version="1.1" xmlns="http://www.w3.org/2000/svg" viewBox="0 0 188.00791994379688 182.55360893745546" width="188.00791994379688" height="182.55360893745546">
  <!-- svg-source:excalidraw -->
  
  <defs>
    <style>
      @font-face {
        font-family: "Virgil";
        src: url("https://excalidraw.com/Virgil.woff2");
      }
      @font-face {
        font-family: "Cascadia";
        src: url("https://excalidraw.com/Cascadia.woff2");
      }
    </style>
  </defs>
  <rect x="0" y="0" width="188.00791994379688" height="182.55360893745546" fill="none" ></rect><g stroke-linecap="round" transform="translate(10.000000000001819 9.999999999999773) rotate(0 84.00395997189753 81.27680446872785)"><path d="M113.45 5.77 C124.29 8.29, 135.06 15.49, 143.1 22.68 C151.15 29.86, 157.87 38.72, 161.74 48.88 C165.6 59.03, 166.32 72.14, 166.3 83.61 C166.28 95.08, 166.28 108.16, 161.63 117.71 C156.98 127.26, 147.57 133.68, 138.4 140.88 C129.23 148.08, 117.55 157.27, 106.61 160.91 C95.67 164.55, 83.75 164.35, 72.74 162.72 C61.73 161.09, 50.04 156.72, 40.56 151.12 C31.08 145.52, 22.09 138.33, 15.86 129.13 C9.64 119.93, 5.36 106.72, 3.19 95.91 C1.03 85.11, 0.68 74.6, 2.87 64.32 C5.05 54.04, 9.48 43.31, 16.3 34.21 C23.12 25.11, 33.39 15.32, 43.78 9.7 C54.18 4.09, 64.95 0.31, 78.68 0.51 C92.41 0.71, 115.91 7.26, 126.18 10.9 C136.46 14.55, 141.02 21.06, 140.33 22.37 M70.14 -0.8 C80.86 -3.53, 95.03 -2.29, 106.04 0.49 C117.05 3.27, 127.17 8.77, 136.2 15.88 C145.23 22.99, 155.22 32.63, 160.23 43.17 C165.24 53.71, 165.47 67.84, 166.27 79.13 C167.07 90.42, 168.5 101.16, 165.03 110.91 C161.56 120.67, 153.97 130.13, 145.44 137.66 C136.91 145.19, 124.95 151.71, 113.86 156.11 C102.76 160.52, 89.88 164.83, 78.86 164.09 C67.85 163.35, 58.09 156.69, 47.77 151.66 C37.46 146.63, 24.22 142.64, 16.97 133.92 C9.72 125.2, 6.51 110.71, 4.27 99.37 C2.02 88.03, 2.31 76.7, 3.5 65.88 C4.69 55.05, 5.82 42.96, 11.39 34.43 C16.96 25.91, 27.3 19.99, 36.9 14.73 C46.49 9.47, 63.45 5.16, 68.96 2.89 C74.47 0.61, 69.7 -0.4, 69.98 1.09" stroke="#000000" stroke-width="4" fill="none"></path></g><g transform="translate(40.61377141956655 76.94526480922445) rotate(0 38.94597030656769 7.016870391986686)" stroke="none"><path fill="#000000" d="M -5.03,-4.85 Q -5.03,-4.85 -3.52,-9.26 -2.01,-13.67 0.91,-17.46 3.83,-21.26 6.15,-24.96 8.46,-28.66 12.23,-32.60 16.01,-36.54 18.99,-39.60 21.98,-42.65 24.38,-45.50 26.77,-48.34 27.34,-48.92 27.91,-49.49 28.60,-49.92 29.29,-50.34 30.06,-50.59 30.83,-50.83 31.64,-50.89 32.45,-50.94 33.24,-50.80 34.04,-50.66 34.78,-50.33 35.52,-50.01 36.17,-49.51 36.81,-49.02 37.31,-48.38 37.82,-47.75 38.15,-47.01 38.49,-46.28 38.64,-45.48 38.79,-44.68 38.75,-43.87 38.71,-43.07 38.47,-42.29 38.24,-41.52 37.82,-40.82 37.41,-40.12 39.00,-35.52 40.60,-30.91 41.34,-26.13 42.07,-21.35 41.70,-16.87 41.33,-12.40 41.32,-6.37 41.30,-0.33 42.08,4.89 42.85,10.12 43.96,14.87 45.07,19.62 46.47,24.03 47.86,28.45 49.68,33.73 51.50,39.01 53.49,42.91 55.48,46.80 51.20,46.57 46.93,46.33 49.77,42.77 52.62,39.20 55.72,34.08 58.83,28.95 61.17,24.30 63.51,19.66 65.06,14.78 66.62,9.91 68.27,3.48 69.92,-2.94 70.09,-5.00 70.27,-7.06 70.27,-7.91 70.26,-8.76 70.53,-9.56 70.80,-10.37 71.32,-11.05 71.83,-11.72 72.53,-12.20 73.24,-12.68 74.05,-12.91 74.87,-13.14 75.72,-13.09 76.57,-13.05 77.36,-12.74 78.15,-12.42 78.80,-11.87 79.45,-11.33 79.89,-10.60 80.33,-9.87 80.51,-9.04 80.70,-8.21 80.61,-7.37 80.52,-6.52 80.16,-5.75 79.80,-4.98 79.22,-4.36 78.64,-3.74 77.89,-3.34 77.14,-2.94 76.30,-2.80 75.46,-2.66 74.62,-2.80 73.78,-2.94 73.03,-3.33 72.28,-3.73 71.69,-4.34 71.11,-4.96 70.75,-5.73 70.39,-6.50 70.30,-7.35 70.20,-8.19 70.39,-9.02 70.57,-9.85 71.00,-10.58 71.44,-11.31 72.09,-11.86 72.73,-12.41 73.52,-12.73 74.31,-13.05 75.16,-13.09 76.01,-13.14 76.83,-12.91 77.65,-12.69 78.35,-12.21 79.06,-11.74 79.57,-11.06 80.09,-10.39 80.36,-9.58 80.63,-8.78 80.63,-8.78 80.63,-8.78 82.51,-4.05 84.39,0.67 86.34,6.68 88.29,12.69 87.52,18.58 86.75,24.47 85.03,28.86 83.31,33.25 80.23,38.90 77.14,44.54 74.82,48.48 72.49,52.41 68.42,58.10 64.34,63.79 60.10,66.97 55.86,70.15 51.10,70.35 46.33,70.56 42.37,67.80 38.40,65.05 35.87,61.36 33.34,57.66 30.79,52.89 28.23,48.12 25.93,43.04 23.63,37.95 22.07,33.61 20.51,29.27 19.20,23.39 17.88,17.51 17.45,13.25 17.03,9.00 16.89,4.43 16.75,-0.12 16.93,-5.09 17.10,-10.06 17.69,-14.82 18.28,-19.59 19.16,-23.81 20.04,-28.03 22.01,-33.49 23.99,-38.96 25.38,-43.65 26.77,-48.34 27.34,-48.92 27.91,-49.49 28.60,-49.92 29.29,-50.34 30.06,-50.59 30.83,-50.83 31.64,-50.89 32.45,-50.94 33.24,-50.80 34.04,-50.66 34.78,-50.33 35.52,-50.01 36.17,-49.51 36.81,-49.02 37.31,-48.38 37.81,-47.75 38.15,-47.01 38.49,-46.28 38.64,-45.48 38.79,-44.68 38.75,-43.88 38.71,-43.07 38.47,-42.29 38.24,-41.52 37.82,-40.82 37.41,-40.12 36.31,-38.67 35.21,-37.22 33.37,-32.26 31.53,-27.31 29.62,-21.70 27.71,-16.09 24.60,-11.90 21.49,-7.71 17.61,-3.10 13.74,1.50 9.39,3.17 5.03,4.85 4.38,5.38 3.72,5.91 2.96,6.27 2.20,6.63 1.37,6.80 0.55,6.97 -0.29,6.93 -1.13,6.90 -1.94,6.66 -2.75,6.42 -3.48,6.00 -4.20,5.58 -4.81,4.99 -5.42,4.41 -5.87,3.70 -6.32,2.98 -6.58,2.18 -6.85,1.38 -6.92,0.54 -6.98,-0.29 -6.85,-1.12 -6.71,-1.95 -6.38,-2.73 -6.05,-3.50 -5.54,-4.17 -5.03,-4.85 -5.03,-4.85 L -5.03,-4.85 Z"></path></g><g transform="translate(116.80024910925567 66.73584312425669) rotate(0 9.205726710151794 -14.306891022581908)" stroke="none"><path fill="#000000" d="M -7.45,-2.82 Q -7.45,-2.82 -7.94,-7.72 -8.43,-12.61 -5.85,-18.15 -3.27,-23.70 -0.10,-27.73 3.06,-31.75 8.49,-31.55 13.92,-31.34 14.47,-31.99 15.03,-32.63 15.76,-33.07 16.49,-33.50 17.32,-33.68 18.15,-33.86 19.00,-33.76 19.84,-33.66 20.61,-33.30 21.38,-32.94 21.99,-32.35 22.61,-31.76 23.00,-31.01 23.39,-30.26 23.53,-29.42 23.66,-28.58 23.52,-27.74 23.37,-26.90 22.97,-26.15 22.57,-25.40 21.95,-24.82 21.33,-24.24 20.56,-23.89 19.78,-23.54 18.94,-23.45 18.09,-23.36 17.26,-23.55 16.43,-23.74 15.71,-24.18 14.98,-24.63 14.44,-25.28 13.89,-25.93 13.58,-26.72 13.27,-27.51 13.23,-28.36 13.19,-29.21 13.42,-30.03 13.65,-30.84 14.13,-31.54 14.61,-32.24 15.29,-32.75 15.97,-33.26 16.78,-33.53 17.59,-33.80 18.44,-33.79 19.29,-33.79 20.09,-33.51 20.90,-33.24 21.57,-32.72 22.24,-32.20 22.71,-31.49 23.19,-30.79 23.41,-29.97 23.63,-29.14 23.58,-28.30 23.53,-27.45 23.21,-26.66 22.89,-25.87 22.89,-25.87 22.89,-25.87 21.68,-18.72 20.46,-11.56 17.57,-7.70 14.67,-3.83 11.06,-0.50 7.45,2.82 7.00,3.67 6.56,4.53 5.92,5.24 5.28,5.96 4.49,6.51 3.70,7.06 2.80,7.40 1.90,7.74 0.95,7.85 -0.00,7.97 -0.95,7.85 -1.90,7.74 -2.80,7.39 -3.70,7.05 -4.49,6.51 -5.28,5.96 -5.92,5.24 -6.56,4.52 -7.00,3.67 -7.45,2.82 -7.68,1.89 -7.91,0.95 -7.91,-0.00 -7.91,-0.96 -7.68,-1.89 -7.45,-2.82 -7.45,-2.82 L -7.45,-2.82 Z"></path></g><g transform="translate(116.31303948638197 112.1490795438333) rotate(0 11.624608540271765 8.143655580963241)" stroke="none"><path fill="#000000" d="M 6.02,-6.29 Q 6.02,-6.29 10.51,-5.34 15.00,-4.39 18.90,-2.07 22.80,0.24 24.24,5.93 25.68,11.63 26.36,12.14 27.04,12.65 27.52,13.35 28.00,14.05 28.23,14.87 28.46,15.68 28.42,16.53 28.38,17.38 28.07,18.17 27.76,18.96 27.22,19.61 26.67,20.27 25.94,20.71 25.22,21.15 24.39,21.34 23.56,21.53 22.71,21.44 21.87,21.35 21.10,21.00 20.32,20.65 19.70,20.07 19.08,19.49 18.68,18.74 18.28,17.99 18.13,17.15 17.99,16.31 18.12,15.47 18.26,14.63 18.65,13.88 19.04,13.13 19.66,12.54 20.27,11.95 21.04,11.59 21.81,11.23 22.65,11.13 23.50,11.04 24.33,11.21 25.16,11.39 25.89,11.82 26.62,12.26 27.18,12.90 27.73,13.55 28.05,14.34 28.37,15.12 28.42,15.97 28.47,16.82 28.25,17.64 28.02,18.46 27.55,19.17 27.08,19.87 26.41,20.39 25.73,20.91 24.93,21.19 24.12,21.46 23.27,21.47 22.42,21.47 21.62,21.20 20.81,20.94 20.81,20.94 20.81,20.94 13.38,22.04 5.95,23.14 1.11,19.16 -3.71,15.18 -4.87,10.74 -6.02,6.29 -6.69,5.48 -7.35,4.67 -7.80,3.72 -8.26,2.77 -8.47,1.74 -8.68,0.71 -8.64,-0.33 -8.60,-1.38 -8.31,-2.39 -8.02,-3.40 -7.50,-4.31 -6.97,-5.22 -6.25,-5.98 -5.52,-6.74 -4.63,-7.30 -3.75,-7.86 -2.75,-8.20 -1.75,-8.53 -0.71,-8.62 0.33,-8.70 1.37,-8.54 2.40,-8.37 3.37,-7.96 4.34,-7.55 5.18,-6.92 6.02,-6.29 6.02,-6.29 L 6.02,-6.29 Z"></path></g></svg>